# xmcd
#
# Track frame offsets: 
#        150
#        14835
#        33495
#        50085
#        67650
#        82522
#        97847
#        109717
#        127835
#        142350
#        154375
#        171240
#
# Disc length: 2523 seconds
#
# Revision: 0
# Processed by: cddbd v1.5.2PL0 Copyright (c) Steve Scherf et al.
# Submitted via: ExactAudioCopy v0.95b4
#
DISCID=9a09d90c
DTITLE=Smoky Babe - Hottest Brand Goin'
DYEAR=1961
DGENRE=Blues
TTITLE0=Now Your Man Done Gone
TTITLE1=Hottest Brand Goin'
TTITLE2=Something Wrong With My Machine
TTITLE3=Insect Blues
TTITLE4=Long Way From Home
TTITLE5=I'm Goin' Back To Mississippi
TTITLE6=Melvanie Blues
TTITLE7=Locomotive Blues
TTITLE8=Ocean Blues
TTITLE9=Boogy Woogy Rag
TTITLE10=Coon Hunt
TTITLE11=Cold, Cold Snow
EXTD=
EXTT0=
EXTT1=
EXTT2=
EXTT3=
EXTT4=
EXTT5=
EXTT6=
EXTT7=
EXTT8=
EXTT9=
EXTT10=
EXTT11=
PLAYORDER=
